<svg width="20" height="21" viewBox="0 0 20 21" fill="none" xmlns="http://www.w3.org/2000/svg">
<rect y="0.682495" width="20" height="20" rx="10" fill="url(#paint0_linear_544_85)"/>
<path d="M9.88636 15.0231C9.04545 15.0231 8.32008 14.8375 7.71023 14.4662C7.10417 14.0912 6.63636 13.5685 6.30682 12.8981C5.98106 12.2238 5.81818 11.4397 5.81818 10.5458C5.81818 9.65185 5.98106 8.86397 6.30682 8.18216C6.63636 7.49655 7.0947 6.96246 7.68182 6.57988C8.27273 6.19352 8.96212 6.00034 9.75 6.00034C10.2045 6.00034 10.6534 6.0761 11.0966 6.22761C11.5398 6.37913 11.9432 6.62534 12.3068 6.96625C12.6705 7.30337 12.9602 7.75034 13.1761 8.30716C13.392 8.86397 13.5 9.54958 13.5 10.364V10.9322H6.77273V9.77307H12.1364C12.1364 9.28064 12.0379 8.84125 11.8409 8.45488C11.6477 8.06852 11.3712 7.7636 11.0114 7.54011C10.6553 7.31663 10.2348 7.20488 9.75 7.20488C9.21591 7.20488 8.75379 7.33746 8.36364 7.60261C7.97727 7.86397 7.67992 8.20488 7.47159 8.62534C7.26326 9.04579 7.15909 9.49655 7.15909 9.97761V10.7503C7.15909 11.4094 7.27273 11.9681 7.5 12.4265C7.73106 12.881 8.05114 13.2276 8.46023 13.4662C8.86932 13.7011 9.3447 13.8185 9.88636 13.8185C10.2386 13.8185 10.5568 13.7693 10.8409 13.6708C11.1288 13.5685 11.3769 13.417 11.5852 13.2162C11.7936 13.0117 11.9545 12.7579 12.0682 12.4549L13.3636 12.8185C13.2273 13.2579 12.9981 13.6443 12.6761 13.9776C12.3542 14.3072 11.9564 14.5647 11.483 14.7503C11.0095 14.9322 10.4773 15.0231 9.88636 15.0231Z" fill="white"/>
<defs>
<linearGradient id="paint0_linear_544_85" x1="10" y1="0.682495" x2="10" y2="20.6825" gradientUnits="userSpaceOnUse">
<stop stop-color="#D9D9D9"/>
<stop offset="1" stop-color="#737373"/>
</linearGradient>
</defs>
</svg>
